{
	"asset":{
		"generator":"Khronos glTF Blender I/O v3.5.30",
		"version":"2.0"
	},
	"scene":0,
	"scenes":[
		{
			"name":"Scene",
			"nodes":[
				0,
				1
			]
		}
	],
	"nodes":[
		{
			"mesh":0,
			"name":"perso"
		},
		{
			"mesh":1,
			"name":"filet_peche"
		}
	],
	"materials":[
		{
			"doubleSided":true,
			"name":"texture",
			"pbrMetallicRoughness":{
				"baseColorFactor":[
					0.800000011920929,
					0.800000011920929,
					0.800000011920929,
					1
				],
				"metallicFactor":0,
				"roughnessFactor":0.5
			}
		}
	],
	"meshes":[
		{
			"name":"Mesh.002",
			"primitives":[
				{
					"attributes":{
						"POSITION":0,
						"TEXCOORD_0":1
					},
					"indices":2,
					"material":0
				}
			]
		},
		{
			"name":"Mesh.003",
			"primitives":[
				{
					"attributes":{
						"POSITION":3,
						"TEXCOORD_0":4
					},
					"indices":5,
					"material":0
				}
			]
		}
	],
	"accessors":[
		{
			"bufferView":0,
			"componentType":5126,
			"count":642,
			"max":[
				0.23071599006652832,
				1.2674037218093872,
				0.9516310691833496
			],
			"min":[
				-0.23154878616333008,
				0.47199922800064087,
				-1.0284693241119385
			],
			"type":"VEC3"
		},
		{
			"bufferView":1,
			"componentType":5126,
			"count":642,
			"type":"VEC2"
		},
		{
			"bufferView":2,
			"componentType":5123,
			"count":1302,
			"type":"SCALAR"
		},
		{
			"bufferView":3,
			"componentType":5126,
			"count":4183,
			"max":[
				0.10617527365684509,
				2.397204875946045,
				0.9634735584259033
			],
			"min":[
				-0.15721341967582703,
				0.9214113354682922,
				0.3638755977153778
			],
			"type":"VEC3"
		},
		{
			"bufferView":4,
			"componentType":5126,
			"count":4183,
			"type":"VEC2"
		},
		{
			"bufferView":5,
			"componentType":5123,
			"count":8334,
			"type":"SCALAR"
		}
	],
	"bufferViews":[
		{
			"buffer":0,
			"byteLength":7704,
			"byteOffset":0,
			"target":34962
		},
		{
			"buffer":0,
			"byteLength":5136,
			"byteOffset":7704,
			"target":34962
		},
		{
			"buffer":0,
			"byteLength":2604,
			"byteOffset":12840,
			"target":34963
		},
		{
			"buffer":0,
			"byteLength":50196,
			"byteOffset":15444,
			"target":34962
		},
		{
			"buffer":0,
			"byteLength":33464,
			"byteOffset":65640,
			"target":34962
		},
		{
			"buffer":0,
			"byteLength":16668,
			"byteOffset":99104,
			"target":34963
		}
	],
	"buffers":[
		{
			"byteLength":115772,
			"uri":"data:application/octet-stream;base64,"
		}
	]
}
